<?xml version="1.0" standalone="no"?>
<!DOCTYPE svg PUBLIC "-//W3C//DTD SVG 20010904//EN"
 "http://www.w3.org/TR/2001/REC-SVG-20010904/DTD/svg10.dtd">
<svg version="1.0" xmlns="http://www.w3.org/2000/svg"
 width="128.000000pt" height="128.000000pt" viewBox="0 0 128.000000 128.000000"
 preserveAspectRatio="xMidYMid meet">
<metadata>
Created by potrace 1.14, written by Peter Selinger 2001-2017
</metadata>
<g transform="translate(0.000000,128.000000) scale(0.100000,-0.100000)"
fill="#000000" stroke="none">
<path d="M560 803 c-41 -164 -74 -312 -73 -328 1 -24 -5 -34 -29 -48 -17 -10
-34 -14 -38 -10 -4 4 -15 37 -25 73 -9 36 -21 70 -27 77 -11 14 -48 8 -60 -9
-24 -37 -82 -145 -84 -155 -1 -7 12 -65 30 -130 l31 -117 75 -44 c85 -51 112
-58 130 -37 10 13 10 27 -4 78 -9 34 -17 65 -17 69 -1 4 -7 29 -15 54 -8 26
-13 48 -12 49 34 20 81 45 86 45 5 0 30 -45 57 -100 27 -55 52 -100 55 -100 3
0 28 45 55 100 27 55 51 100 53 100 2 0 24 -12 48 -26 31 -18 43 -31 40 -43
-6 -18 -56 -205 -56 -208 0 -1 7 -9 16 -18 10 -10 24 -13 38 -9 44 14 158 88
166 108 4 12 20 69 34 127 l27 107 -46 80 c-26 44 -52 83 -58 85 -23 9 -55
-12 -61 -40 -4 -15 -14 -51 -22 -80 l-15 -52 -32 19 c-25 16 -32 27 -32 52 -1
37 -147 628 -155 628 -3 0 -39 -134 -80 -297z"/>
</g>
</svg>
